<svg width="46" height="46" viewBox="0 0 46 46" fill="none" xmlns="http://www.w3.org/2000/svg">
<path d="M8.1076 3.31816C21.3079 3.31839 36.5344 3.31812 36.5344 3.31812" stroke="white" stroke-width="3" stroke-linecap="round"/>
<path d="M35.6681 2C35.6681 4.40807 35.668 2 35.6681 10.9205C35.6682 24.82 35.6681 42.9312 35.6681 42.9312" stroke="white" stroke-width="3" stroke-linecap="round"/>
<path d="M15.0582 4.12964C15.5201 9.22541 15.3524 14.3631 15.3524 19.4846C15.3524 23.844 13.7848 38.124 12.8361 42.388" stroke="white" stroke-width="3" stroke-linecap="round"/>
<path d="M7.51654 17.5754C12.9101 17.5754 18.4756 17.5754 23.8692 17.5754C25.8719 17.5754 26.2334 17.5756 35.6904 17.5754" stroke="white" stroke-width="3" stroke-linecap="round"/>
<path d="M2 43.4724C2 43.4724 4.43547 43.4724 9.48675 43.4724C14.5916 43.4724 13.0331 43.4724 24.0662 43.4724C38.2311 43.4724 49.9817 46.0932 40.6791 39.6526" stroke="white" stroke-width="3" stroke-linecap="round"/>
</svg>
