<svg width="45" height="46" viewBox="0 0 45 46" fill="none" xmlns="http://www.w3.org/2000/svg">
<path d="M3.73743 8.80005C5.76272 12.2911 7.08559 20.7886 7.77348 25.3568C8.21808 28.3094 8.55473 32.267 7.57492 35.1389C6.55118 38.1397 4.49217 39.0875 2 40.4" stroke="white" stroke-width="3" stroke-linecap="round"/>
<path d="M3.82642 8.80005C5.28507 13.0932 7.65537 13.2583 31.9522 12.3639" stroke="white" stroke-width="3" stroke-linecap="round"/>
<path d="M8.94019 24.6216L17.5216 24.4" stroke="white" stroke-width="3" stroke-linecap="round"/>
<path d="M16.6108 2C16.6108 17.4237 20.4462 24.6 20.4462 24.6C20.4462 24.6 24.1753 32.6102 32.3071 38.5424C37.3115 42.1932 43.2756 44 43.2756 44" stroke="white" stroke-width="3" stroke-linecap="round"/>
<path d="M31.9358 19.6001C31.2352 26.4162 31.3841 29.5577 27.4831 33.5397C23.5822 37.5218 18.9848 38.3109 18.9848 38.3109" stroke="white" stroke-width="3" stroke-linecap="round"/>
<path d="M33.8699 12.01C34.4241 11.7454 27.1283 7.39167 26.1079 6.54712" stroke="white" stroke-width="3" stroke-linecap="round"/>
<path d="M43.0652 43.6966C40.9115 42.0059 40.8689 39.1005 41.5487 36.8" stroke="white" stroke-width="3" stroke-linecap="round"/>
</svg>
