<svg width="45" height="44" viewBox="0 0 45 44" fill="none" xmlns="http://www.w3.org/2000/svg">
<path d="M23.157 7.00217C22.9152 5.31819 20.6387 3.31102 19.4045 2" stroke="white" stroke-width="3" stroke-linecap="round"/>
<path d="M1.00959 9.8254C0.406479 9.8254 28.3994 10.0184 41.8216 9.8254C44.1376 9.7921 42.4303 8.68376 41.8216 7.43677" stroke="white" stroke-width="3" stroke-linecap="round"/>
<path d="M19.706 10.8962C18.8166 13.5784 17.5951 16.333 12.6826 21.4141M12.6826 21.4141C11.2595 23.0234 10.3702 21.9505 12.6826 21.4141ZM12.6826 21.4141C15.8844 21.0284 20.0209 21.4141 21.9159 21.4141" stroke="white" stroke-width="3" stroke-linecap="round"/>
<path d="M28.4512 13.7216C26.0368 19.9692 24.203 23.2032 19.6877 26.7763C15.1725 30.3493 11.1803 31.7503 3.91732 31.8344" stroke="white" stroke-width="3" stroke-linecap="round"/>
<path d="M33.7474 19.7847C29.7374 27.5904 28.0908 29.8791 23.2806 33.7034C18.4704 37.5277 11.8843 40.3683 1.86039 40.0647" stroke="white" stroke-width="3" stroke-linecap="round"/>
<path d="M37.0935 38.8174C34.9307 35.7715 32.0119 32.9385 29.3651 29.9954" stroke="white" stroke-width="3" stroke-linecap="round"/>
</svg>
