<svg width="46" height="46" viewBox="0 0 46 46" fill="none" xmlns="http://www.w3.org/2000/svg">
<path d="M9.13531 2.14431C13.513 2.14431 17.3173 2.13104 21.695 2.14435C27.3094 2.16143 31.7757 2.14429 36.2377 2.14425" stroke="white" stroke-width="3" stroke-linecap="round"/>
<path d="M36.3357 2.10641C35.8455 2.17959 35.4179 2.76545 35.143 2.99068C33.5902 4.26305 38.053 0.93261 36.3357 2.10641ZM36.3357 2.10641C33.5908 3.9826 24.2836 10.0384 21.5297 11.8887" stroke="white" stroke-width="3" stroke-linecap="round"/>
<path d="M21.2641 10.0894C21.2641 15.5283 21.2641 38.586 21.2641 41.0465C21.2641 43.5069 19.1772 44.8566 17.2686 42.9515C15.36 41.0465 14.4056 39.6177 14.4056 39.6177" stroke="white" stroke-width="3" stroke-linecap="round"/>
<path d="M2.00706 17.4072C8.83898 17.3573 15.6709 17.3073 22.5028 17.2574C27.2174 17.2229 38.841 17.2683 38.841 17.2683C38.841 17.2683 48.7252 17.4385 41.0859 13.4412" stroke="white" stroke-width="3" stroke-linecap="round"/>
</svg>
