<svg width="46" height="44" viewBox="0 0 46 44" fill="none" xmlns="http://www.w3.org/2000/svg">
<g id="Group 48">
<path id="Vector 79" d="M6.86963 8.83984C19.091 8.83984 42.4329 8.83984 42.4329 8.83984" stroke="white" stroke-width="3" stroke-linecap="round"/>
<path id="Vector 80" d="M44 6.9563C43.5008 11.5001 41.8452 14.0367 40.8657 15.4529" stroke="white" stroke-width="3" stroke-linecap="round"/>
<path id="Vector 81" d="M22.0597 6.95634C21.7463 6.24829 21.4954 5.89822 20.806 5.18622C19.9552 4.3075 18.0903 2.45922 17.0448 2" stroke="white" stroke-width="3" stroke-linecap="round"/>
<path id="Vector 82" d="M5.13434 15.4528C34.4554 15.4528 27.9396 15.4528 27.9396 15.4528H36.1642C42.1246 14.7692 36.1642 11.9126 36.1642 11.9126" stroke="white" stroke-width="3" stroke-linecap="round"/>
<path id="Vector 83" d="M2 17.577C2 17.577 7.51156 12.2667 5.1909 6.9563" stroke="white" stroke-width="3" stroke-linecap="round"/>
<path id="Vector 84" d="M21.7463 15.8069V23.2414L21.7463 31.384" stroke="white" stroke-width="3" stroke-linecap="round"/>
<path id="Vector 85" d="M5.13434 21.1177H11.4199L30.5224 21.1174H37.4179" stroke="white" stroke-width="3" stroke-linecap="round"/>
<path id="Vector 86" d="M5.76117 31.738L37.1045 31.7381" stroke="white" stroke-width="3" stroke-linecap="round"/>
<path id="Vector 87" d="M5.13434 21.1174V35.9865" stroke="white" stroke-width="3" stroke-linecap="round"/>
<path id="Vector 88" d="M37.7313 21.1174C37.7313 25.2615 37.7313 36.3405 37.7313 36.3405" stroke="white" stroke-width="3" stroke-linecap="round"/>
<path id="Vector 89" d="M5.13434 26.7817C5.13434 26.7817 21.3323 26.7818 36.7911 26.7818" stroke="white" stroke-width="3" stroke-linecap="round"/>
<path id="Vector 90" d="M16.442 34.2241C16.442 34.2241 16.4465 39.5331 5.13424 39.5265" stroke="white" stroke-width="3" stroke-linecap="round"/>
<path id="Vector 91" d="M37.7314 40.9428C37.7314 38.1106 29.9438 35.6324 25.8209 34.5703" stroke="white" stroke-width="3" stroke-linecap="round"/>
</g>
</svg>
