<svg width="46" height="44" viewBox="0 0 46 44" fill="none" xmlns="http://www.w3.org/2000/svg">
<path d="M7.29727 3.49605C10.6031 3.74448 16.2241 2.11992 20.111 1.1484" stroke="white" stroke-width="3" stroke-linecap="round"/>
<path d="M6.99194 4.19995C6.99194 4.19995 9.94595 16.8 5.99621 21.6999C5.99621 21.6999 5.02703 23.2909 2 25.2" stroke="white" stroke-width="3" stroke-linecap="round"/>
<path d="M3.00002 25.4348C13.3899 21.6385 20 20.9999 20 20.9999" stroke="white" stroke-width="3" stroke-linecap="round"/>
<path d="M21.4234 4.19995C21.4234 10.4222 21.4234 22.6639 21.4234 28.8861C21.4234 33.5733 19.2146 36.0346 16.8249 37.9409C14.4352 39.8472 11.1955 41.5234 3.76575 42" stroke="white" stroke-width="3" stroke-linecap="round"/>
<path d="M30.2523 3.1499C30.2523 3.1499 30.2523 10.7549 30.2523 13.98C30.2523 19.0372 30.2523 29.1661 30.2523 29.1661C30.2523 33.2087 30.2523 37.9485 30.2523 41.9999" stroke="white" stroke-width="3" stroke-linecap="round"/>
<path d="M30.3784 2C39.208 2 44 2 44 2V26C44 26 44 26 35.2412 26" stroke="white" stroke-width="3" stroke-linecap="round"/>
</svg>
