<svg width="45" height="46" viewBox="0 0 45 46" fill="none" xmlns="http://www.w3.org/2000/svg">
<path d="M5.86365 3.40782C8.66884 5.36596 14.2291 5.37855 15.5964 5.36596C19.2415 5.33239 22.8885 5.36596 26.5338 5.36596C30.678 5.36596 35.0032 5.71188 39.1389 5.36596C40.2844 5.27014 37.1883 2 37.1883 2" stroke="white" stroke-width="3" stroke-linecap="round"/>
<path d="M5.33774 3.1731C7.49998 12.5586 9.15903 26.0387 5.33774 35.5362C3.88096 39.1569 1.5 41 1.5 41" stroke="white" stroke-width="3" stroke-linecap="round"/>
<path d="M8.20135 13.1245C17.0845 13.1245 17.2676 13.1445 21.8259 13.1245C26.3621 13.1046 30.8992 13.1245 35.4354 13.1245C39.2962 13.1245 35.5631 10.1451 34.6169 9.03906" stroke="white" stroke-width="3" stroke-linecap="round"/>
<path d="M8.43506 20.7619C18.4778 20.7619 18.6848 20.7825 23.8381 20.7619C28.9664 20.7414 34.0958 20.7619 39.2242 20.7619C43.5889 20.7619 39.3685 17.6885 38.2989 16.5476" stroke="white" stroke-width="3" stroke-linecap="round"/>
<path d="M14.513 20.771C14.513 20.771 14.3877 23.3468 14.513 24.5252C14.513 24.5252 14.513 24.5252 14.513 33.676C14.513 33.676 14.5129 39.5227 14.5129 42.8269C14.5129 45.8807 19.9429 42.158 20.8247 40.7151" stroke="white" stroke-width="3" stroke-linecap="round"/>
<path d="M23.3961 20.771C25.2662 27.1062 26.7564 30.5606 27.1364 31.3297C27.9781 33.0333 30.1753 36.5806 32.633 38.5167C35.0908 40.4528 37.8896 41.8883 43.5 43.7654" stroke="white" stroke-width="3" stroke-linecap="round"/>
<path d="M31 30C34.2571 27.8846 35.2857 26.7308 37 25" stroke="white" stroke-width="3" stroke-linecap="round"/>
</svg>
