<svg width="44" height="46" viewBox="0 0 44 46" fill="none" xmlns="http://www.w3.org/2000/svg">
<path d="M7.99999 12.1961C12.0585 11.8274 20.1624 10.9282 20.1624 10.9282L32.9956 9.57373" stroke="white" stroke-width="3" stroke-linecap="round"/>
<path d="M20.1864 2C20.1864 2 20.2068 13.6984 20.2409 24.0513C20.2409 24.0513 21.4553 51.8178 17.3756 41.9609" stroke="white" stroke-width="3" stroke-linecap="round"/>
<path d="M3 21.6333C14.4951 20.4266 37.6102 18.0001 37.6102 18.0001" stroke="white" stroke-width="3" stroke-linecap="round"/>
<path d="M1.99998 35.9999C7.02417 33.5025 12.2238 29.884 16.0218 26.1317C18.2351 23.945 18.9241 22.1518 19.7756 19.9999" stroke="white" stroke-width="3" stroke-linecap="round"/>
<path d="M41.9061 33.9283C39.048 38.3006 31.7429 30.6839 31.7429 30.6839C31.7429 30.6839 24.3671 22.3138 20 20.5303" stroke="white" stroke-width="3" stroke-linecap="round"/>
</svg>
