<svg width="46" height="46" viewBox="0 0 46 46" fill="none" xmlns="http://www.w3.org/2000/svg">
<path d="M2 2.55518C2 2.55518 5.91703 2.50341 10.489 2.44298C15.3321 2.37897 22.2723 2.28724 27.1153 2.22324C37.4781 2.08628 44 2.22324 44 2.22324" stroke="white" stroke-width="3" stroke-linecap="round"/>
<path d="M18.0841 3.23242V10.5794C18.0841 10.5794 18.0841 13.8639 17.6373 17.4077C16.7734 24.2592 12.3212 28.3354 8.70081 29.4568" stroke="white" stroke-width="3" stroke-linecap="round"/>
<path d="M27.6703 2.75977V10.0837V17.4076C27.6703 17.4076 27.4844 22.0795 30.1485 22.8415C32.8125 23.6034 36.404 22.8415 38.4147 22.1327" stroke="white" stroke-width="3" stroke-linecap="round"/>
<path d="M40.9196 13.1326C40.9196 13.1326 39.3063 13.7212 36.2537 13.7457C31.8195 13.7813 30.0322 13.8932 25.601 13.8312C21.0549 13.7676 11.1195 13.9474 6.56209 13.9839C5.36939 13.9935 4.17171 9.10374 5.42883 13.993C5.73216 17.7614 5.57113 42.4926 5.57113 42.4926" stroke="white" stroke-width="3" stroke-linecap="round"/>
<path d="M40.3702 13.155C40.3702 13.155 40.3702 19.3155 40.3702 21.4248C40.3702 25.1965 40.7248 42.2906 40.7248 42.2906C40.7248 42.2906 41.6002 45.4043 39.085 41.1786" stroke="white" stroke-width="3" stroke-linecap="round"/>
<path d="M14.5095 33.48C14.5095 33.48 20.3005 32.9206 25.6014 32.4085C29.2548 32.0556 29.2548 32.0556 29.2548 32.0556" stroke="white" stroke-width="3" stroke-linecap="round"/>
<path d="M6.4943 43.9994C2.91743 40.1794 5.82295 41.3264 5.82295 41.3264L38.673 41.3134M38.673 41.3134C35.0975 41.3148 35.1383 41.3148 38.673 41.3134Z" stroke="white" stroke-width="3" stroke-linecap="round"/>
</svg>
