<svg width="46" height="46" viewBox="0 0 46 46" fill="none" xmlns="http://www.w3.org/2000/svg">
<path d="M2 2H42.3956" stroke="white" stroke-width="3" stroke-linecap="round"/>
<path d="M21.6207 3.92871C22.6355 9.35538 23.7929 16.5959 22.0375 21.9295C21.0466 24.9401 19.9774 27.4833 18.7353 30.3298C18.1051 31.7741 17.6273 32.5032 16.7782 33.7579C16.2814 34.4919 15.3 35.7915 14.6957 36.3301" stroke="white" stroke-width="3" stroke-linecap="round"/>
<path d="M22.7748 20.5151C24.5054 23.8027 25.9233 27.2216 27.4877 30.6513C28.2782 32.3844 29.0573 34.7216 30.2769 35.9443" stroke="white" stroke-width="3" stroke-linecap="round"/>
<path d="M2.86562 13.9576C2.09557 13.5719 7.46374 13.5719 8.26773 13.5719C14.0866 13.5719 19.9055 13.5719 25.7244 13.5719C30.1006 13.5719 34.4768 13.5719 38.8529 13.5719C39.6503 13.5719 42.6162 14.0551 42.7551 14.6328C43.2047 16.5026 43.407 18.383 43.5177 20.3436C43.6778 23.1808 43.7297 26.0914 43.8222 28.9368C43.9262 32.1337 43.8383 35.3582 43.8383 38.5587C43.8383 39.7757 44.2418 42.4247 43.7742 43.4874C43.3015 44.5616 37.4025 43.8097 36.9133 42.5017" stroke="white" stroke-width="3" stroke-linecap="round"/>
<path d="M2.47205 14.0598C2.47205 15.5061 2.47205 12.5732 2.47205 14.0598ZM2.47205 14.0598C2.47205 19.5913 2.47205 38.2921 2.47205 43.8236" stroke="white" stroke-width="3" stroke-linecap="round"/>
</svg>
