<svg width="46" height="46" viewBox="0 0 46 46" fill="none" xmlns="http://www.w3.org/2000/svg">
<path d="M2 2.36799C10.5124 2.36799 19.0264 2.43605 27.5385 2.35165C27.6334 2.35071 32.8538 1.45219 32.9103 2.53133C33.1542 7.19379 33.4998 11.6035 34.2051 16.2191C34.6357 19.0369 35.1428 21.8703 35.4615 24.7127" stroke="white" stroke-width="3" stroke-linecap="round"/>
<path d="M34.7692 21.4786C24.6163 21.4786 14.4631 21.1846 4.30768 21.1846" stroke="white" stroke-width="3" stroke-linecap="round"/>
<path d="M3.38458 21.4786C4.14582 22.0848 3.61535 27.0004 3.61535 28.1428C3.61535 31.5292 3.88948 34.8811 4.42304 38.2045C4.71545 40.0257 4.70424 42.9338 6.3333 43.513C8.77665 44.3817 11.8094 43.8233 14.3333 43.8233C20.2735 43.8233 26.2136 43.8233 32.1538 43.8233C33.9059 43.8233 35.6581 43.8233 37.4102 43.8233C38.6361 43.8233 40.41 44.2046 41.5384 43.3986C43.2195 42.198 43.7129 39.8437 44 37.6491" stroke="white" stroke-width="3" stroke-linecap="round"/>
</svg>
