<svg width="46" height="46" viewBox="0 0 46 46" fill="none" xmlns="http://www.w3.org/2000/svg">
<path d="M2 25.1631C2 19.6567 2 14.1503 2 8.64389C2 7.26514 2 5.88639 2 4.50764C2 3.9814 2.49034 2.98454 3.05855 2.56792C3.35565 2.35008 3.99911 1.99428 4.23415 2.00007C8.93657 2.00004 6.80626 2.14216 10.5342 2.00004C15.0093 2.12566 19.4891 2.02683 23.9618 2.14222C30.3369 2.30669 36.7527 2.13457 43.1179 2.37488C44.5769 2.42997 43.7859 8.39958 43.7859 9.27726C43.7859 13.224 43.663 17.1845 43.8026 21.1302C43.8739 23.1447 43.8026 23.2211 43.8026 25.1631" stroke="white" stroke-width="3" stroke-linecap="round"/>
<path d="M23.0438 2.28015C23.0438 8.34312 23.0438 7.79735 23.0438 9.79464C23.0438 13.1425 23.0438 16.4903 23.0438 19.8381C23.0438 24.0876 23.0438 23.1257 23.0438 32.3063C23.0438 39.5241 23.0438 38.1649 23.0438 44" stroke="white" stroke-width="3" stroke-linecap="round"/>
<path d="M2.59296 10.6264C16.1615 10.6264 29.8288 10.4059 43.4386 10.4059" stroke="white" stroke-width="3" stroke-linecap="round"/>
<path d="M2.89325 18.7856C13.3383 18.7856 23.7833 18.7856 34.2283 18.7856C36.7088 18.7856 39.1894 18.7856 41.6699 18.7856C42.2894 18.7856 42.6284 18.7565 43.1382 19.0061" stroke="white" stroke-width="3" stroke-linecap="round"/>
</svg>
