<svg width="46" height="46" viewBox="0 0 46 46" fill="none" xmlns="http://www.w3.org/2000/svg">
<path d="M6.23938 4.19409C11.0648 6.20759 17.0313 5.73614 22.083 5.76125C28.6077 5.79369 35.1326 5.506 41.6214 6.38812" stroke="white" stroke-width="3" stroke-linecap="round"/>
<path d="M6.10088 4.63989C8.94215 18.5444 6.8595 32.8578 2 42.6728" stroke="white" stroke-width="3" stroke-linecap="round"/>
<path d="M11.719 22.2249C41.5702 22.6338 44 22.6338 44 22.6338" stroke="white" stroke-width="3" stroke-linecap="round"/>
<path d="M14.1487 13.637C36.6749 13.7966 29.7847 13.637 36.3229 13.637C37.0548 13.637 39.1387 14.7734 39.1387 15.9465C39.1387 20.5764 39.1387 23.1427 39.1387 28.0665C39.1711 28.8337 38.7586 29.9637 37.7308 30.7177C36.4812 31.6345 34.7809 31.631 33.8591 31.631C28.0943 31.631 19.9136 31.631 14.1487 31.631" stroke="white" stroke-width="3" stroke-linecap="round"/>
<path d="M26.9897 9.83594C26.9897 12.2023 27.6022 14.4012 27.773 16.7489C28.0733 20.8768 28.2471 25.118 27.906 29.2513C27.6094 32.8465 26.3334 35.9219 24.0043 38.3583C21.3587 41.1256 17.8536 42.0627 14.7523 43.6866" stroke="white" stroke-width="3" stroke-linecap="round"/>
<path d="M28.0538 33.6567C29.8899 34.5838 31.4338 37.6441 32.665 39.403C33.7073 40.8919 34.6595 42.3443 35.5027 44" stroke="white" stroke-width="3" stroke-linecap="round"/>
<path d="M26.1916 2C26.1916 3.39499 26.1703 4.72053 26.4577 6.07462" stroke="white" stroke-width="3" stroke-linecap="round"/>
</svg>
