<svg width="46" height="44" viewBox="0 0 46 44" fill="none" xmlns="http://www.w3.org/2000/svg">
<path d="M23.0234 3.00452C21.2002 6.36626 19.5628 10.0875 16.5003 12.6136C14.0841 14.6065 10.5646 15.6822 7.55797 16.5058C5.66512 17.0243 3.92339 17.1886 1.99998 16.915" stroke="white" stroke-width="3" stroke-linecap="round"/>
<path d="M22.7411 2.93802C18.1734 2.96904 13.1656 3.75813 8.55341 2.43323" stroke="white" stroke-width="3" stroke-linecap="round"/>
<path d="M16 11.0205C13.8175 10.7576 12.4775 9.30826 10.9495 8.22055C9.92127 7.48862 8.91606 7.04069 8 6.17993" stroke="white" stroke-width="3" stroke-linecap="round"/>
<path d="M27.7885 2.69324C29.8044 6.81305 32.7626 11.5219 36.5246 14.3674C42 17.3132 39.5 15.861 44 17.7973" stroke="white" stroke-width="3" stroke-linecap="round"/>
<path d="M31.6729 8.56143C33.3329 8.05921 34.7645 6.64669 36.1242 5.64552C36.8229 5.13105 37.5181 4.67547 37.9101 3.91663" stroke="white" stroke-width="3" stroke-linecap="round"/>
<path d="M35.0314 13.2064C37.6235 12.6897 39.9618 10.3633 41.9882 8.79382" stroke="white" stroke-width="3" stroke-linecap="round"/>
<path d="M15.6002 16.9222H34.0718" stroke="white" stroke-width="3" stroke-linecap="round"/>
<path d="M2 25.5421H44" stroke="white" stroke-width="3" stroke-linecap="round"/>
<path d="M24.5 17.3132C24.5 20.215 24.4798 22.5172 24.4798 25.4221" stroke="white" stroke-width="3" stroke-linecap="round"/>
<path d="M25 27.4784C24.693 30.9825 22.3656 36.7652 18.2154 38.9523C15.6728 40.2922 12.1771 40.7438 9.16923 41.3085C7.4801 41.6257 5.58806 41.5468 4 42" stroke="white" stroke-width="3" stroke-linecap="round"/>
<path d="M25 28.4465C28.181 35.2803 34.2521 40.8539 44 42.0001" stroke="white" stroke-width="3" stroke-linecap="round"/>
</svg>
