<svg width="46" height="46" viewBox="0 0 46 46" fill="none" xmlns="http://www.w3.org/2000/svg">
<path d="M20.1111 2.11095C25.3312 2.83248 30.8937 2.11095 36.1513 2.11095C38.5822 2.11095 41.0902 1.94744 43.5194 2.1322C44.7688 2.22723 41.2813 3.29429 40.1251 3.78981C32.5667 7.02912 24.7276 10.1709 17.5033 14.1393C11.7111 17.321 6.3954 21.5617 3.30525 27.6552C1.96832 30.2915 1.05259 34.328 2.58086 37.1121C3.98738 39.6744 7.18569 40.8437 9.74199 41.6599C15.8472 43.6093 22.3802 44.0954 28.7418 44.0401C32.6048 44.0064 42.7268 43.9755 43.4987 38.1109C43.8345 35.5593 43.2869 32.461 41.3462 30.8004" stroke="white" stroke-width="3" stroke-linecap="round"/>
</svg>
