<svg width="46" height="46" viewBox="0 0 46 46" fill="none" xmlns="http://www.w3.org/2000/svg">
<path d="M7.13629 7.78564H37.7313" stroke="white" stroke-width="3" stroke-linecap="round"/>
<path d="M2 20.2261C23.9403 20.2262 9.52239 20.2261 25.0213 20.2261C36.4776 20.2261 34.6791 20.2261 44 20.2261" stroke="white" stroke-width="3" stroke-linecap="round"/>
<path d="M5.76111 32.2143C17.6716 32.2142 18.0866 32.2325 24.1678 32.2142C29.7426 32.1975 35.318 32.2142 40.8929 32.2142" stroke="white" stroke-width="3" stroke-linecap="round"/>
<path d="M11.403 11C13.6233 14.0304 13.6233 14.0304 16.4179 17" stroke="white" stroke-width="3" stroke-linecap="round"/>
<path d="M34.8449 11C33.0672 14.315 33.0672 14.315 29.1903 18.7239" stroke="white" stroke-width="3" stroke-linecap="round"/>
<path d="M22.2992 2C22.3606 3.9564 23.1263 5.83628 23.1263 7.78573" stroke="white" stroke-width="3" stroke-linecap="round"/>
<path d="M23.3134 20.5C23.3134 28 23.3134 20.9327 23.3134 23.4153C23.3134 30.2769 23.3134 37.1385 23.3134 44.0001" stroke="white" stroke-width="3" stroke-linecap="round"/>
</svg>
