<svg width="46" height="46" viewBox="0 0 46 46" fill="none" xmlns="http://www.w3.org/2000/svg">
<path d="M6.58386 9.79883H44" stroke="white" stroke-width="3" stroke-linecap="round"/>
<path d="M17.7859 3.29797C20.0881 11.1453 25.0001 17.8617 28.1863 25.2352C30.5081 30.6083 32.7449 35.8999 35.3693 41.0948C36.4377 43.2097 37.2013 45.4639 38.9109 42.7589C40.7215 39.8939 41.8894 36.3003 42.9264 32.9913" stroke="white" stroke-width="3" stroke-linecap="round"/>
<path d="M38.1747 20.2783C37.5762 23.7892 36.7118 26.2607 34.7642 29.1737C32.4688 32.6068 29.7748 34.9068 26.4371 37.0537C22.1511 39.8104 17.4371 42.4252 12.6332 43.9182" stroke="white" stroke-width="3" stroke-linecap="round"/>
<path d="M41.7595 5.89935C41.6984 6.06565 41.474 5.76674 41.411 5.72334C40.328 4.97724 39.0002 4.60276 37.7889 4.19339C34.8262 3.19218 31.8164 2.55326 28.7647 2" stroke="white" stroke-width="3" stroke-linecap="round"/>
<path d="M6.89525 9.65771C10.2869 22.213 7.80082 35.1375 2 44" stroke="white" stroke-width="3" stroke-linecap="round"/>
</svg>
